<svg width="31" height="38" viewBox="0 0 31 38" fill="none" xmlns="http://www.w3.org/2000/svg">
<path d="M22.2976 17.0846C20.5588 19.1074 17.834 19.3817 15.4001 19.3817C12.9662 19.3817 10.2414 19.1092 8.50261 17.0846C7.04049 15.3837 6.56629 12.7537 7.05486 9.05568C7.73742 3.88536 10.8575 0.799988 15.4001 0.799988C19.9427 0.799988 23.0628 3.88536 23.7453 9.05202C24.2339 12.7537 23.7597 15.3837 22.2976 17.0846Z" fill="#647788"/>
<path d="M15.4001 21.997C22.5814 21.997 28.6975 26.5035 30.2728 32.9522H30.271C30.5817 34.2196 30.3249 35.5127 29.5633 36.5003C28.8304 37.4513 27.6952 38 26.4504 38H4.34975C3.10497 38 1.96976 37.4513 1.2369 36.5003C0.477102 35.5127 0.218447 34.2178 0.527397 32.9522C2.10268 26.5035 8.21881 21.997 15.4001 21.997Z" fill="#647788"/>
</svg>
